<svg width="195" height="31" viewBox="0 0 195 31" fill="none" xmlns="http://www.w3.org/2000/svg">
<path d="M26.8249 1.93622H22.4131L15.4414 13.6738L14.6516 15.6074H14.5971L13.7529 13.6738L6.80836 1.93622H2.45101V24.0225H7.76153V12.3122H7.81599L8.8781 14.627L14.5971 24.2949H14.6788L20.3978 14.627L21.4599 12.3122H21.5144V24.0225H26.8249V1.93622ZM44.2052 15.4168C44.2052 18.1401 42.9252 19.8558 39.984 19.8558C37.0428 19.8558 35.7356 18.1129 35.7356 15.4168C35.7356 12.6934 37.0155 11.005 39.9568 11.005C42.898 11.005 44.2052 12.7207 44.2052 15.4168ZM49.434 15.4168C49.434 10.4331 46.2749 6.5659 39.9568 6.5659C33.6658 6.5659 30.5068 10.4603 30.5068 15.4168C30.5068 20.3733 33.6658 24.2676 39.9568 24.2676C46.2204 24.2676 49.434 20.346 49.434 15.4168ZM70.4897 13.4015C70.4897 9.12585 67.6029 6.5659 62.8916 6.5659C60.9308 6.5659 59.1606 7.19227 57.9895 8.25438H57.9351V6.81101H52.7063V23.9953H57.9351V14.0279C57.9351 12.0943 59.4602 10.9777 61.8295 10.9777C64.8796 10.9777 65.2609 12.0126 65.2609 13.8372V23.9953H70.4897V13.4015ZM79.6633 6.83824H74.4345V23.9953H79.6633V6.83824ZM79.7995 3.18896C79.7995 1.60942 78.6829 0.411149 77.0489 0.411149C75.4421 0.411149 74.3256 1.60942 74.3256 3.18896C74.3256 4.74127 75.4421 5.96677 77.0489 5.96677C78.6557 5.96677 79.7995 4.7685 79.7995 3.18896Z" fill="#1F2E51"/>
<path d="M128.855 15.4168C128.855 18.1402 127.575 19.8559 124.633 19.8559C121.692 19.8559 120.385 18.1129 120.385 15.4168C120.385 12.6935 121.665 11.005 124.606 11.005C127.547 11.005 128.855 12.7207 128.855 15.4168ZM134.083 15.4168C134.083 10.4331 130.924 6.56597 124.606 6.56597C118.315 6.56597 115.156 10.4603 115.156 15.4168C115.156 20.3733 118.315 24.2677 124.606 24.2677C130.87 24.2677 134.083 20.3461 134.083 15.4168ZM150.237 15.4168C150.237 18.1402 148.957 19.8559 146.016 19.8559C143.075 19.8559 141.767 18.1129 141.767 15.4168C141.767 12.6935 143.047 11.005 145.989 11.005C148.93 11.005 150.237 12.7207 150.237 15.4168ZM155.466 15.4168C155.466 10.4331 152.307 6.56597 145.989 6.56597C139.698 6.56597 136.539 10.4603 136.539 15.4168C136.539 20.3733 139.698 24.2677 145.989 24.2677C152.252 24.2677 155.466 20.3461 155.466 15.4168ZM184.065 14.0279C184.065 9.47994 181.859 6.56597 177.093 6.56597C175.16 6.56597 173.417 7.4102 172.191 8.69017H172.137C171.293 7.46467 169.768 6.56597 167.916 6.56597C166.5 6.56597 165.002 7.11064 164.049 7.98211H163.994V6.81107H158.738V23.9954H163.994V13.919C163.994 12.1488 165.002 10.9778 166.609 10.9778C168.297 10.9778 168.76 11.6586 168.76 14.0007V23.9954H174.043L174.016 13.8918C173.989 12.1488 174.969 10.9778 176.631 10.9778C178.319 10.9778 178.809 11.7403 178.809 14.5726V23.9954H184.038L184.065 14.0279Z" fill="#1F2E51"/>
<path d="M188.406 7.96095H184.241V8.90425H185.84L185.785 9.00355V12.4292H186.861V9.00355L186.806 8.90425H188.406V7.96095ZM193.949 7.96095H193.055L191.643 10.3385L191.483 10.7302H191.472L191.301 10.3385L189.895 7.96095H189.012V12.4347H190.088V10.0627H190.099L190.314 10.5316L191.472 12.4899H191.489L192.647 10.5316L192.862 10.0627H192.873V12.4347H193.949V7.96095Z" fill="#1F2E51"/>
<path d="M111.032 19.8683C111.541 18.3597 111.815 16.744 111.815 15.0636C111.815 6.74402 105.071 0 96.7492 0C92.2279 0 88.1708 1.99285 85.4102 5.14616H102.902C103.696 5.14616 104.08 6.11915 103.502 6.66144L92.5515 16.9426C91.6164 17.8219 90.3779 18.3084 89.0947 18.2995L83.4219 18.266L92.4801 9.663H82.6832C82.0316 11.3524 81.6789 13.189 81.6856 15.1104C81.7124 23.4389 88.7153 30.2811 97.0416 30.1227C101.724 30.0334 105.883 27.8107 108.586 24.3829H90.2931C89.3848 24.3829 88.9429 23.2715 89.6057 22.6489L99.5923 13.2783C100.998 11.9571 102.859 11.2274 104.79 11.2385L109.456 11.2653L100.398 19.8683H111.032Z" fill="#5ACAEF"/>
</svg>
